<svg width="58" height="58" viewBox="0 0 58 58" fill="none" xmlns="http://www.w3.org/2000/svg">
<path d="M41.0833 9.66675H46.95C48.7413 9.66675 49.637 9.66675 50.1935 10.2232C50.75 10.7797 50.75 11.6754 50.75 13.4667V19.3334M41.0833 48.3334H46.95C48.7413 48.3334 49.637 48.3334 50.1935 47.7769C50.75 47.2204 50.75 46.3248 50.75 44.5334V38.6667M16.9167 9.66675H11.05C9.25866 9.66675 8.36299 9.66675 7.8065 10.2232C7.25 10.7797 7.25 11.6754 7.25 13.4667V19.3334M16.9167 48.3334H11.05C9.25866 48.3334 8.36299 48.3334 7.8065 47.7769C7.25 47.2204 7.25 46.3248 7.25 44.5334V38.6667" stroke="#FFF9F9" stroke-width="5" stroke-linecap="round"/>
<path d="M28.9995 16.917C39.3963 16.917 44.0084 24.7219 45.4185 27.7861C45.6565 28.3034 45.7759 28.5619 45.7759 29C45.7759 29.4381 45.6565 29.6966 45.4185 30.2139C44.0084 33.2781 39.3963 41.083 28.9995 41.083C18.603 41.0828 13.9916 33.2781 12.5815 30.2139C12.3435 29.6966 12.2241 29.4381 12.2241 29C12.2241 28.5619 12.3435 28.3034 12.5815 27.7861C13.9916 24.7219 18.603 16.9172 28.9995 16.917ZM28.9995 21.75C24.9957 21.7503 21.7495 24.9961 21.7495 29C21.7495 33.0039 24.9957 36.2498 28.9995 36.25C33.0036 36.25 36.2495 33.0041 36.2495 29C36.2495 24.9959 33.0036 21.75 28.9995 21.75Z" fill="#FFF9F9"/>
</svg>
