<svg width="58" height="58" viewBox="0 0 58 58" fill="none" xmlns="http://www.w3.org/2000/svg">
<path d="M50.75 47.167C50.75 49.9952 50.7497 51.4094 49.8711 52.2881C48.9924 53.1666 47.5783 53.167 44.75 53.167H13.25C10.4217 53.167 9.0076 53.1666 8.12891 52.2881C7.25026 51.4094 7.25 49.9952 7.25 47.167V29.833C7.25 31.7185 7.25031 32.6613 7.83594 33.2471C8.42172 33.8329 9.36438 33.833 11.25 33.833H17.8916C18.5873 33.833 18.9354 33.8337 19.1973 34.0225C19.459 34.2112 19.5691 34.5413 19.7891 35.2012L21.2939 39.7158C21.5139 40.3757 21.624 40.7057 21.8857 40.8945C22.1476 41.0833 22.4958 41.083 23.1914 41.083H34.8086C35.5042 41.083 35.8524 41.0833 36.1143 40.8945C36.376 40.7057 36.4861 40.3757 36.7061 39.7158L38.2109 35.2012C38.4309 34.5413 38.541 34.2112 38.8027 34.0225C39.0646 33.8337 39.4127 33.833 40.1084 33.833H46.75C48.6356 33.833 49.5783 33.8329 50.1641 33.2471C50.7497 32.6613 50.75 31.7185 50.75 29.833V47.167Z" fill="#E4E4E4"/>
<path d="M38.6667 14.5H46.75C48.6356 14.5 49.5784 14.5 50.1642 15.0858C50.75 15.6716 50.75 16.6144 50.75 18.5V49.1667C50.75 51.0523 50.75 51.9951 50.1642 52.5809C49.5784 53.1667 48.6356 53.1667 46.75 53.1667H11.25C9.36438 53.1667 8.42157 53.1667 7.83579 52.5809C7.25 51.9951 7.25 51.0523 7.25 49.1667V18.5C7.25 16.6144 7.25 15.6716 7.83579 15.0858C8.42157 14.5 9.36438 14.5 11.25 14.5H19.3333" stroke="#E4E4E4" stroke-width="5"/>
<path d="M19.3333 24.1667L28.9999 31.4167M28.9999 31.4167L38.6666 24.1667M28.9999 31.4167L28.9999 7.25008" stroke="#E4E4E4" stroke-width="5"/>
</svg>
