<svg width="58" height="58" viewBox="0 0 58 58" fill="none" xmlns="http://www.w3.org/2000/svg">
<path d="M7.25 23.8142C7.25 23.3677 7.25 23.1445 7.26781 22.9564C7.44874 21.0453 8.96185 19.5322 10.873 19.3512C11.0611 19.3334 11.2843 19.3334 11.7307 19.3334V19.3334C12.0176 19.3334 12.161 19.3334 12.2938 19.3246C13.6159 19.2365 14.8087 18.4993 15.4787 17.3562C15.546 17.2413 15.6102 17.1131 15.7384 16.8565L18.2278 11.8779C18.7657 10.8021 19.0346 10.2641 19.5179 9.96545C20.0012 9.66675 20.6027 9.66675 21.8055 9.66675H36.1945C37.3973 9.66675 37.9988 9.66675 38.4821 9.96545C38.9654 10.2641 39.2343 10.8021 39.7722 11.8779L42.2616 16.8565C42.3898 17.1131 42.454 17.2413 42.5213 17.3562C43.1913 18.4993 44.3841 19.2365 45.7062 19.3246C45.839 19.3334 45.9824 19.3334 46.2693 19.3334V19.3334C46.7157 19.3334 46.9389 19.3334 47.127 19.3512C49.0381 19.5322 50.5513 21.0453 50.7322 22.9564C50.75 23.1445 50.75 23.3677 50.75 23.8142V42.3334C50.75 45.1618 50.75 46.5761 49.8713 47.4547C48.9926 48.3334 47.5784 48.3334 44.75 48.3334H13.25C10.4216 48.3334 9.00736 48.3334 8.12868 47.4547C7.25 46.5761 7.25 45.1618 7.25 42.3334V23.8142Z" stroke="#E5E5E5" stroke-width="5"/>
<circle cx="28.9999" cy="31.4167" r="7.16667" stroke="#E5E5E5" stroke-width="5"/>
</svg>
